<svg width="116" height="88" viewBox="0 0 116 88" fill="none" xmlns="http://www.w3.org/2000/svg">
<rect width="116" height="88" fill="#EEF3FA"/>
<path d="M38.3598 55.8V59.808H43.0718V61.072H38.3598V66H36.8078V54.536H43.8718V55.8H38.3598ZM46.85 54.216V66H45.426V54.216H46.85ZM50.6633 57.896V66H49.2393V57.896H50.6633ZM50.9673 55.352C50.9673 55.4907 50.9379 55.6213 50.8793 55.744C50.8259 55.8613 50.7513 55.968 50.6553 56.064C50.5646 56.1547 50.4553 56.2267 50.3273 56.28C50.2046 56.3333 50.0739 56.36 49.9353 56.36C49.7966 56.36 49.6659 56.3333 49.5433 56.28C49.4259 56.2267 49.3219 56.1547 49.2313 56.064C49.1406 55.968 49.0686 55.8613 49.0153 55.744C48.9619 55.6213 48.9353 55.4907 48.9353 55.352C48.9353 55.2133 48.9619 55.0827 49.0153 54.96C49.0686 54.832 49.1406 54.7227 49.2313 54.632C49.3219 54.536 49.4259 54.4613 49.5433 54.408C49.6659 54.3547 49.7966 54.328 49.9353 54.328C50.0739 54.328 50.2046 54.3547 50.3273 54.408C50.4553 54.4613 50.5646 54.536 50.6553 54.632C50.7513 54.7227 50.8259 54.832 50.8793 54.96C50.9379 55.0827 50.9673 55.2133 50.9673 55.352ZM55.827 62.04C56.115 62.04 56.3683 62 56.587 61.92C56.8057 61.84 56.9897 61.728 57.139 61.584C57.2883 61.44 57.4003 61.2693 57.475 61.072C57.5497 60.8693 57.587 60.648 57.587 60.408C57.587 59.912 57.435 59.5173 57.131 59.224C56.8323 58.9307 56.3977 58.784 55.827 58.784C55.251 58.784 54.811 58.9307 54.507 59.224C54.2083 59.5173 54.059 59.912 54.059 60.408C54.059 60.648 54.0963 60.8693 54.171 61.072C54.251 61.2693 54.3657 61.44 54.515 61.584C54.6643 61.728 54.8483 61.84 55.067 61.92C55.2857 62 55.539 62.04 55.827 62.04ZM58.395 66.44C58.395 66.2427 58.339 66.0827 58.227 65.96C58.115 65.8373 57.963 65.7413 57.771 65.672C57.5843 65.6027 57.3657 65.5547 57.115 65.528C56.8643 65.496 56.5977 65.472 56.315 65.456C56.0377 65.44 55.755 65.424 55.467 65.408C55.179 65.392 54.9017 65.3653 54.635 65.328C54.3363 65.4667 54.091 65.6427 53.899 65.856C53.7123 66.064 53.619 66.3093 53.619 66.592C53.619 66.7733 53.6643 66.9413 53.755 67.096C53.851 67.256 53.995 67.392 54.187 67.504C54.379 67.6213 54.619 67.712 54.907 67.776C55.2003 67.8453 55.5443 67.88 55.939 67.88C56.323 67.88 56.667 67.8453 56.971 67.776C57.275 67.7067 57.531 67.608 57.739 67.48C57.9523 67.352 58.115 67.2 58.227 67.024C58.339 66.848 58.395 66.6533 58.395 66.44ZM59.843 58.216V58.744C59.843 58.92 59.731 59.032 59.507 59.08L58.587 59.2C58.7683 59.552 58.859 59.9413 58.859 60.368C58.859 60.7627 58.7817 61.1227 58.627 61.448C58.4777 61.768 58.2697 62.0427 58.003 62.272C57.7363 62.5013 57.4163 62.6773 57.043 62.8C56.6697 62.9227 56.2643 62.984 55.827 62.984C55.4483 62.984 55.091 62.9387 54.755 62.848C54.5843 62.9547 54.4537 63.0693 54.363 63.192C54.2723 63.3093 54.227 63.4293 54.227 63.552C54.227 63.744 54.3043 63.8907 54.459 63.992C54.619 64.088 54.827 64.1573 55.083 64.2C55.339 64.2427 55.6297 64.2693 55.955 64.28C56.2857 64.2907 56.6217 64.3093 56.963 64.336C57.3097 64.3573 57.6457 64.3973 57.971 64.456C58.3017 64.5147 58.595 64.6107 58.851 64.744C59.107 64.8773 59.3123 65.0613 59.467 65.296C59.627 65.5307 59.707 65.8347 59.707 66.208C59.707 66.5547 59.619 66.8907 59.443 67.216C59.2723 67.5413 59.0243 67.8293 58.699 68.08C58.3737 68.336 57.9737 68.5387 57.499 68.688C57.0297 68.8427 56.499 68.92 55.907 68.92C55.315 68.92 54.7977 68.8613 54.355 68.744C53.9123 68.6267 53.5443 68.4693 53.251 68.272C52.9577 68.0747 52.7363 67.8453 52.587 67.584C52.443 67.328 52.371 67.0587 52.371 66.776C52.371 66.376 52.4963 66.0373 52.747 65.76C52.9977 65.4827 53.3417 65.2613 53.779 65.096C53.539 64.9893 53.347 64.848 53.203 64.672C53.0643 64.4907 52.995 64.248 52.995 63.944C52.995 63.8267 53.0163 63.7067 53.059 63.584C53.1017 63.456 53.1657 63.3307 53.251 63.208C53.3417 63.08 53.451 62.96 53.579 62.848C53.707 62.736 53.8563 62.6373 54.027 62.552C53.627 62.328 53.315 62.032 53.091 61.664C52.867 61.2907 52.755 60.8587 52.755 60.368C52.755 59.9733 52.8297 59.616 52.979 59.296C53.1337 58.9707 53.347 58.696 53.619 58.472C53.891 58.2427 54.2137 58.0667 54.587 57.944C54.9657 57.8213 55.379 57.76 55.827 57.76C56.179 57.76 56.507 57.8 56.811 57.88C57.115 57.9547 57.3923 58.0667 57.643 58.216H59.843ZM62.7475 58.976C63.0942 58.608 63.4782 58.3147 63.8995 58.096C64.3208 57.8773 64.8062 57.768 65.3555 57.768C65.7982 57.768 66.1875 57.8427 66.5235 57.992C66.8648 58.136 67.1475 58.344 67.3715 58.616C67.6008 58.8827 67.7742 59.2053 67.8915 59.584C68.0088 59.9627 68.0675 60.3813 68.0675 60.84V66H66.6355V60.84C66.6355 60.2267 66.4942 59.752 66.2115 59.416C65.9342 59.0747 65.5102 58.904 64.9395 58.904C64.5182 58.904 64.1235 59.0053 63.7555 59.208C63.3928 59.4107 63.0568 59.6853 62.7475 60.032V66H61.3155V54.216H62.7475V58.976ZM72.616 66.128C71.976 66.128 71.4827 65.9493 71.136 65.592C70.7947 65.2347 70.624 64.72 70.624 64.048V59.088H69.648C69.5627 59.088 69.4907 59.064 69.432 59.016C69.3733 58.9627 69.344 58.8827 69.344 58.776V58.208L70.672 58.04L71 55.536C71.016 55.456 71.0507 55.392 71.104 55.344C71.1627 55.2907 71.2373 55.264 71.328 55.264H72.048V58.056H74.392V59.088H72.048V63.952C72.048 64.2933 72.1307 64.5467 72.296 64.712C72.4613 64.8773 72.6747 64.96 72.936 64.96C73.0853 64.96 73.2133 64.9413 73.32 64.904C73.432 64.8613 73.528 64.816 73.608 64.768C73.688 64.72 73.7547 64.6773 73.808 64.64C73.8667 64.5973 73.9173 64.576 73.96 64.576C74.0347 64.576 74.1013 64.6213 74.16 64.712L74.576 65.392C74.3307 65.6213 74.0347 65.8027 73.688 65.936C73.3413 66.064 72.984 66.128 72.616 66.128ZM80.5824 59.232C80.5184 59.3493 80.4197 59.408 80.2864 59.408C80.2064 59.408 80.1157 59.3787 80.0144 59.32C79.913 59.2613 79.7877 59.1973 79.6384 59.128C79.4944 59.0533 79.321 58.9867 79.1184 58.928C78.9157 58.864 78.6757 58.832 78.3984 58.832C78.1584 58.832 77.9424 58.864 77.7504 58.928C77.5584 58.9867 77.393 59.0693 77.2544 59.176C77.121 59.2827 77.017 59.408 76.9424 59.552C76.873 59.6907 76.8384 59.8427 76.8384 60.008C76.8384 60.216 76.897 60.3893 77.0144 60.528C77.137 60.6667 77.297 60.7867 77.4944 60.888C77.6917 60.9893 77.9157 61.08 78.1664 61.16C78.417 61.2347 78.673 61.3173 78.9344 61.408C79.201 61.4933 79.4597 61.5893 79.7104 61.696C79.961 61.8027 80.185 61.936 80.3824 62.096C80.5797 62.256 80.737 62.4533 80.8544 62.688C80.977 62.9173 81.0384 63.1947 81.0384 63.52C81.0384 63.8933 80.9717 64.24 80.8384 64.56C80.705 64.8747 80.5077 65.1493 80.2464 65.384C79.985 65.6133 79.665 65.7947 79.2864 65.928C78.9077 66.0613 78.4704 66.128 77.9744 66.128C77.409 66.128 76.897 66.0373 76.4384 65.856C75.9797 65.6693 75.5904 65.432 75.2704 65.144L75.6064 64.6C75.649 64.5307 75.6997 64.4773 75.7584 64.44C75.817 64.4027 75.8917 64.384 75.9824 64.384C76.0784 64.384 76.1797 64.4213 76.2864 64.496C76.393 64.5707 76.521 64.6533 76.6704 64.744C76.825 64.8347 77.0117 64.9173 77.2304 64.992C77.449 65.0667 77.721 65.104 78.0464 65.104C78.3237 65.104 78.5664 65.0693 78.7744 65C78.9824 64.9253 79.1557 64.8267 79.2944 64.704C79.433 64.5813 79.5344 64.44 79.5984 64.28C79.6677 64.12 79.7024 63.9493 79.7024 63.768C79.7024 63.544 79.641 63.36 79.5184 63.216C79.401 63.0667 79.2437 62.9413 79.0464 62.84C78.849 62.7333 78.6224 62.6427 78.3664 62.568C78.1157 62.488 77.857 62.4053 77.5904 62.32C77.329 62.2347 77.0704 62.1387 76.8144 62.032C76.5637 61.92 76.3397 61.7813 76.1424 61.616C75.945 61.4507 75.785 61.248 75.6624 61.008C75.545 60.7627 75.4864 60.4667 75.4864 60.12C75.4864 59.8107 75.5504 59.5147 75.6784 59.232C75.8064 58.944 75.993 58.6933 76.2384 58.48C76.4837 58.2613 76.785 58.088 77.1424 57.96C77.4997 57.832 77.9077 57.768 78.3664 57.768C78.8997 57.768 79.377 57.8533 79.7984 58.024C80.225 58.1893 80.593 58.4187 80.9024 58.712L80.5824 59.232Z" fill="#838383"/>
<g clip-path="url(#clip0)">
<path d="M73 26.8735C73 32.7552 48.8156 39.2473 46.9843 39.2473C45.9576 39.2473 44.7928 38.9698 44.7928 37.8601C44.7928 37.4893 45.1578 36.9534 45.7983 36.3074L45.7976 36.3078L44.0999 32.7714C43.8701 32.2926 44.0523 31.686 44.4873 31.4818L44.7791 31.3449C45.3078 31.0966 45.903 31.1336 46.4063 31.446L49.4882 33.3589C50.6882 32.5245 52.0494 31.6508 53.4841 30.7906L47.4782 26.2224C47.0031 25.8609 47.0081 25.0435 47.4877 24.6903L47.979 24.3284C48.7967 23.7261 49.7908 23.5482 50.7244 23.8369L60.7157 26.9267C63.8309 25.477 66.6475 24.4876 68.3146 24.4876C68.7598 24.4876 69.2057 24.5014 69.636 24.5375L66.6188 26.1344L66.5465 27.3243L71.2041 24.8141C72.3205 25.1263 73 25.7089 73 26.8735ZM60.8452 37.0265L64.572 41.9901C64.7991 42.2926 65.169 42.3836 65.4807 42.2138L65.9798 41.9418C66.89 41.4458 67.426 40.3211 67.3095 39.1524L66.8429 34.4754C66.814 34.186 66.5635 34.0029 66.3291 34.0996L61.0073 36.2975C60.7483 36.4046 60.6637 36.7848 60.8452 37.0265Z" fill="white"/>
</g>
<defs>
<clipPath id="clip0">
<rect x="44" y="16" width="29" height="34" fill="white"/>
</clipPath>
</defs>
</svg>
