<svg width="116" height="88" viewBox="0 0 116 88" fill="none" xmlns="http://www.w3.org/2000/svg">
<rect width="116" height="88" fill="#EEF3FA" fill-opacity="0.35"/>
<path d="M45.877 54.536V66H44.325V60.784H38.141V66H36.589V54.536H38.141V59.648H44.325V54.536H45.877ZM51.6378 57.768C52.2298 57.768 52.7631 57.8667 53.2378 58.064C53.7124 58.2613 54.1178 58.5413 54.4538 58.904C54.7898 59.2667 55.0458 59.7067 55.2218 60.224C55.4031 60.736 55.4938 61.3093 55.4938 61.944C55.4938 62.584 55.4031 63.16 55.2218 63.672C55.0458 64.184 54.7898 64.6213 54.4538 64.984C54.1178 65.3467 53.7124 65.6267 53.2378 65.824C52.7631 66.016 52.2298 66.112 51.6378 66.112C51.0404 66.112 50.5018 66.016 50.0218 65.824C49.5471 65.6267 49.1418 65.3467 48.8058 64.984C48.4698 64.6213 48.2111 64.184 48.0298 63.672C47.8538 63.16 47.7658 62.584 47.7658 61.944C47.7658 61.3093 47.8538 60.736 48.0298 60.224C48.2111 59.7067 48.4698 59.2667 48.8058 58.904C49.1418 58.5413 49.5471 58.2613 50.0218 58.064C50.5018 57.8667 51.0404 57.768 51.6378 57.768ZM51.6378 65C52.4378 65 53.0351 64.7333 53.4298 64.2C53.8244 63.6613 54.0218 62.912 54.0218 61.952C54.0218 60.9867 53.8244 60.2347 53.4298 59.696C53.0351 59.1573 52.4378 58.888 51.6378 58.888C51.2324 58.888 50.8778 58.9573 50.5738 59.096C50.2751 59.2347 50.0244 59.4347 49.8218 59.696C49.6244 59.9573 49.4751 60.28 49.3738 60.664C49.2778 61.0427 49.2298 61.472 49.2298 61.952C49.2298 62.912 49.4271 63.6613 49.8218 64.2C50.2218 64.7333 50.8271 65 51.6378 65ZM59.6473 66.128C59.0073 66.128 58.5139 65.9493 58.1673 65.592C57.8259 65.2347 57.6553 64.72 57.6553 64.048V59.088H56.6793C56.5939 59.088 56.5219 59.064 56.4633 59.016C56.4046 58.9627 56.3753 58.8827 56.3753 58.776V58.208L57.7033 58.04L58.0312 55.536C58.0473 55.456 58.0819 55.392 58.1353 55.344C58.1939 55.2907 58.2686 55.264 58.3593 55.264H59.0793V58.056H61.4233V59.088H59.0793V63.952C59.0793 64.2933 59.1619 64.5467 59.3273 64.712C59.4926 64.8773 59.7059 64.96 59.9673 64.96C60.1166 64.96 60.2446 64.9413 60.3513 64.904C60.4633 64.8613 60.5593 64.816 60.6393 64.768C60.7193 64.72 60.7859 64.6773 60.8393 64.64C60.8979 64.5973 60.9486 64.576 60.9913 64.576C61.0659 64.576 61.1326 64.6213 61.1913 64.712L61.6073 65.392C61.3619 65.6213 61.0659 65.8027 60.7193 65.936C60.3726 66.064 60.0153 66.128 59.6473 66.128ZM68.2708 61.064C68.2708 60.7333 68.2228 60.432 68.1268 60.16C68.0361 59.8827 67.9001 59.6453 67.7188 59.448C67.5428 59.2453 67.3268 59.0907 67.0708 58.984C66.8148 58.872 66.5241 58.816 66.1988 58.816C65.5161 58.816 64.9748 59.016 64.5748 59.416C64.1801 59.8107 63.9348 60.36 63.8388 61.064H68.2708ZM69.4228 64.864C69.2468 65.0773 69.0361 65.264 68.7908 65.424C68.5454 65.5787 68.2814 65.7067 67.9988 65.808C67.7214 65.9093 67.4334 65.984 67.1348 66.032C66.8361 66.0853 66.5401 66.112 66.2468 66.112C65.6868 66.112 65.1694 66.0187 64.6948 65.832C64.2254 65.64 63.8174 65.3627 63.4708 65C63.1294 64.632 62.8628 64.1787 62.6708 63.64C62.4788 63.1013 62.3828 62.4827 62.3828 61.784C62.3828 61.2187 62.4681 60.6907 62.6388 60.2C62.8148 59.7093 63.0654 59.2853 63.3908 58.928C63.7161 58.5653 64.1134 58.2827 64.5828 58.08C65.0521 57.872 65.5801 57.768 66.1668 57.768C66.6521 57.768 67.1001 57.8507 67.5108 58.016C67.9268 58.176 68.2841 58.4107 68.5828 58.72C68.8868 59.024 69.1241 59.4027 69.2948 59.856C69.4654 60.304 69.5508 60.816 69.5508 61.392C69.5508 61.616 69.5268 61.7653 69.4788 61.84C69.4308 61.9147 69.3401 61.952 69.2068 61.952H63.7908C63.8068 62.464 63.8761 62.9093 63.9988 63.288C64.1268 63.6667 64.3028 63.984 64.5268 64.24C64.7508 64.4907 65.0174 64.68 65.3268 64.808C65.6361 64.9307 65.9828 64.992 66.3668 64.992C66.7241 64.992 67.0308 64.952 67.2868 64.872C67.5481 64.7867 67.7721 64.696 67.9588 64.6C68.1454 64.504 68.3001 64.416 68.4228 64.336C68.5508 64.2507 68.6601 64.208 68.7508 64.208C68.8681 64.208 68.9588 64.2533 69.0228 64.344L69.4228 64.864ZM72.7719 54.216V66H71.3479V54.216H72.7719ZM79.8011 59.232C79.7371 59.3493 79.6385 59.408 79.5051 59.408C79.4251 59.408 79.3345 59.3787 79.2331 59.32C79.1318 59.2613 79.0065 59.1973 78.8571 59.128C78.7131 59.0533 78.5398 58.9867 78.3371 58.928C78.1345 58.864 77.8945 58.832 77.6171 58.832C77.3771 58.832 77.1611 58.864 76.9691 58.928C76.7771 58.9867 76.6118 59.0693 76.4731 59.176C76.3398 59.2827 76.2358 59.408 76.1611 59.552C76.0918 59.6907 76.0571 59.8427 76.0571 60.008C76.0571 60.216 76.1158 60.3893 76.2331 60.528C76.3558 60.6667 76.5158 60.7867 76.7131 60.888C76.9105 60.9893 77.1345 61.08 77.3851 61.16C77.6358 61.2347 77.8918 61.3173 78.1531 61.408C78.4198 61.4933 78.6785 61.5893 78.9291 61.696C79.1798 61.8027 79.4038 61.936 79.6011 62.096C79.7985 62.256 79.9558 62.4533 80.0731 62.688C80.1958 62.9173 80.2571 63.1947 80.2571 63.52C80.2571 63.8933 80.1905 64.24 80.0571 64.56C79.9238 64.8747 79.7265 65.1493 79.4651 65.384C79.2038 65.6133 78.8838 65.7947 78.5051 65.928C78.1265 66.0613 77.6891 66.128 77.1931 66.128C76.6278 66.128 76.1158 66.0373 75.6571 65.856C75.1985 65.6693 74.8091 65.432 74.4891 65.144L74.8251 64.6C74.8678 64.5307 74.9185 64.4773 74.9771 64.44C75.0358 64.4027 75.1105 64.384 75.2011 64.384C75.2971 64.384 75.3985 64.4213 75.5051 64.496C75.6118 64.5707 75.7398 64.6533 75.8891 64.744C76.0438 64.8347 76.2305 64.9173 76.4491 64.992C76.6678 65.0667 76.9398 65.104 77.2651 65.104C77.5425 65.104 77.7851 65.0693 77.9931 65C78.2011 64.9253 78.3745 64.8267 78.5131 64.704C78.6518 64.5813 78.7531 64.44 78.8171 64.28C78.8865 64.12 78.9211 63.9493 78.9211 63.768C78.9211 63.544 78.8598 63.36 78.7371 63.216C78.6198 63.0667 78.4625 62.9413 78.2651 62.84C78.0678 62.7333 77.8411 62.6427 77.5851 62.568C77.3345 62.488 77.0758 62.4053 76.8091 62.32C76.5478 62.2347 76.2891 62.1387 76.0331 62.032C75.7825 61.92 75.5585 61.7813 75.3611 61.616C75.1638 61.4507 75.0038 61.248 74.8811 61.008C74.7638 60.7627 74.7051 60.4667 74.7051 60.12C74.7051 59.8107 74.7691 59.5147 74.8971 59.232C75.0251 58.944 75.2118 58.6933 75.4571 58.48C75.7025 58.2613 76.0038 58.088 76.3611 57.96C76.7185 57.832 77.1265 57.768 77.5851 57.768C78.1185 57.768 78.5958 57.8533 79.0171 58.024C79.4438 58.1893 79.8118 58.4187 80.1211 58.712L79.8011 59.232Z" fill="#838383"/>
<path d="M58.7533 19.5547V16H57.2299V19.5547H52.668V42H55.7148V39.9688H54.6992C54.6992 38.1487 56.1799 36.668 58 36.668C59.8201 36.668 61.3008 38.1487 61.3008 39.9688H60.2852V42H63.332V19.5547H58.7533ZM55.7148 34.3828H54.1914V32.3516H55.7148V34.3828ZM55.7148 30.8281H54.1914V28.7969H55.7148V30.8281ZM55.7148 27.2734H54.1914V25.2422H55.7148V27.2734ZM55.7148 23.7188H54.1914V21.6875H55.7148V23.7188ZM58.7617 34.3828H57.2383V32.3516H58.7617V34.3828ZM58.7617 30.8281H57.2383V28.7969H58.7617V30.8281ZM58.7617 27.2734H57.2383V25.2422H58.7617V27.2734ZM58.7617 23.7188H57.2383V21.6875H58.7617V23.7188ZM61.8086 34.3828H60.2852V32.3516H61.8086V34.3828ZM61.8086 30.8281H60.2852V28.7969H61.8086V30.8281ZM61.8086 27.2734H60.2852V25.2422H61.8086V27.2734ZM61.8086 23.7188H60.2852V21.6875H61.8086V23.7188Z" fill="#DADADA"/>
<path d="M58.7617 39.9688H57.2383V42H58.7617V39.9688Z" fill="#DADADA"/>
<path d="M71 28.2383H64.8555V42H71V28.2383Z" fill="#DADADA"/>
<path d="M51.1445 28.2383H45V42H51.1445V28.2383Z" fill="#DADADA"/>
</svg>
