<svg width="116" height="88" viewBox="0 0 116 88" fill="none" xmlns="http://www.w3.org/2000/svg">
<rect width="116" height="88" fill="#EEF3FA" fill-opacity="0.35"/>
<path d="M30.0511 62.48C30.4938 62.48 30.8831 62.4213 31.2191 62.304C31.5605 62.1867 31.8458 62.024 32.0751 61.816C32.3098 61.6027 32.4858 61.3493 32.6031 61.056C32.7205 60.7627 32.7791 60.44 32.7791 60.088C32.7791 59.3573 32.5525 58.7867 32.0991 58.376C31.6511 57.9653 30.9685 57.76 30.0511 57.76H28.2111V62.48H30.0511ZM30.0511 56.536C30.7765 56.536 31.4058 56.6213 31.9391 56.792C32.4778 56.9573 32.9231 57.1947 33.2751 57.504C33.6271 57.8133 33.8885 58.1867 34.0591 58.624C34.2351 59.0613 34.3231 59.5493 34.3231 60.088C34.3231 60.6213 34.2298 61.1093 34.0431 61.552C33.8565 61.9947 33.5818 62.376 33.2191 62.696C32.8618 63.016 32.4165 63.2667 31.8831 63.448C31.3551 63.624 30.7445 63.712 30.0511 63.712H28.2111V68H26.6671V56.536H30.0511ZM40.0825 64.352C39.4265 64.3733 38.8665 64.4267 38.4025 64.512C37.9438 64.592 37.5678 64.6987 37.2745 64.832C36.9865 64.9653 36.7758 65.1227 36.6425 65.304C36.5145 65.4853 36.4505 65.688 36.4505 65.912C36.4505 66.1253 36.4852 66.3093 36.5545 66.464C36.6238 66.6187 36.7172 66.7467 36.8345 66.848C36.9572 66.944 37.0985 67.016 37.2585 67.064C37.4238 67.1067 37.5998 67.128 37.7865 67.128C38.0372 67.128 38.2665 67.104 38.4745 67.056C38.6825 67.0027 38.8772 66.928 39.0585 66.832C39.2452 66.736 39.4212 66.6213 39.5865 66.488C39.7572 66.3547 39.9225 66.2027 40.0825 66.032V64.352ZM35.4825 61.04C35.9305 60.608 36.4132 60.2853 36.9305 60.072C37.4478 59.8587 38.0212 59.752 38.6505 59.752C39.1038 59.752 39.5065 59.8267 39.8585 59.976C40.2105 60.1253 40.5065 60.3333 40.7465 60.6C40.9865 60.8667 41.1678 61.1893 41.2905 61.568C41.4132 61.9467 41.4745 62.3627 41.4745 62.816V68H40.8425C40.7038 68 40.5972 67.9787 40.5225 67.936C40.4478 67.888 40.3892 67.7973 40.3465 67.664L40.1865 66.896C39.9732 67.0933 39.7652 67.2693 39.5625 67.424C39.3598 67.5733 39.1465 67.7013 38.9225 67.808C38.6985 67.9093 38.4585 67.9867 38.2025 68.04C37.9518 68.0987 37.6718 68.128 37.3625 68.128C37.0478 68.128 36.7518 68.0853 36.4745 68C36.1972 67.9093 35.9545 67.776 35.7465 67.6C35.5438 67.424 35.3812 67.2027 35.2585 66.936C35.1412 66.664 35.0825 66.344 35.0825 65.976C35.0825 65.656 35.1705 65.3493 35.3465 65.056C35.5225 64.7573 35.8078 64.4933 36.2025 64.264C36.5972 64.0347 37.1118 63.848 37.7465 63.704C38.3812 63.5547 39.1598 63.4693 40.0825 63.448V62.816C40.0825 62.1867 39.9465 61.712 39.6745 61.392C39.4025 61.0667 39.0052 60.904 38.4825 60.904C38.1305 60.904 37.8345 60.9493 37.5945 61.04C37.3598 61.1253 37.1545 61.224 36.9785 61.336C36.8078 61.4427 36.6585 61.5413 36.5305 61.632C36.4078 61.7173 36.2852 61.76 36.1625 61.76C36.0665 61.76 35.9838 61.736 35.9145 61.688C35.8452 61.6347 35.7865 61.5707 35.7385 61.496L35.4825 61.04ZM49.2836 61.336C49.241 61.3947 49.1983 61.44 49.1556 61.472C49.113 61.504 49.0543 61.52 48.9796 61.52C48.8996 61.52 48.8116 61.488 48.7156 61.424C48.6196 61.3547 48.4996 61.28 48.3556 61.2C48.217 61.12 48.0436 61.048 47.8356 60.984C47.633 60.9147 47.3823 60.88 47.0836 60.88C46.6836 60.88 46.3316 60.952 46.0276 61.096C45.7236 61.2347 45.4676 61.4373 45.2596 61.704C45.057 61.9707 44.9023 62.2933 44.7956 62.672C44.6943 63.0507 44.6436 63.4747 44.6436 63.944C44.6436 64.4347 44.6996 64.872 44.8116 65.256C44.9236 65.6347 45.081 65.9547 45.2836 66.216C45.4916 66.472 45.7396 66.6693 46.0276 66.808C46.321 66.9413 46.649 67.008 47.0116 67.008C47.3583 67.008 47.6436 66.968 47.8676 66.888C48.0916 66.8027 48.2756 66.7093 48.4196 66.608C48.569 66.5067 48.6916 66.416 48.7876 66.336C48.889 66.2507 48.9876 66.208 49.0836 66.208C49.201 66.208 49.2916 66.2533 49.3556 66.344L49.7556 66.864C49.5796 67.0827 49.3796 67.2693 49.1556 67.424C48.9316 67.5787 48.689 67.7093 48.4276 67.816C48.1716 67.9173 47.9023 67.992 47.6196 68.04C47.337 68.088 47.049 68.112 46.7556 68.112C46.249 68.112 45.777 68.0187 45.3396 67.832C44.9076 67.6453 44.5316 67.376 44.2116 67.024C43.8916 66.6667 43.641 66.2293 43.4596 65.712C43.2783 65.1947 43.1876 64.6053 43.1876 63.944C43.1876 63.3413 43.2703 62.784 43.4356 62.272C43.6063 61.76 43.8516 61.32 44.1716 60.952C44.497 60.5787 44.8943 60.288 45.3636 60.08C45.8383 59.872 46.3823 59.768 46.9956 59.768C47.5663 59.768 48.0676 59.8613 48.4996 60.048C48.937 60.2293 49.3236 60.488 49.6596 60.824L49.2836 61.336ZM52.7163 56.216V63.152H53.0843C53.1909 63.152 53.2789 63.1387 53.3483 63.112C53.4229 63.08 53.5003 63.0187 53.5803 62.928L56.1403 60.184C56.2149 60.0933 56.2923 60.024 56.3723 59.976C56.4576 59.9227 56.5696 59.896 56.7083 59.896H57.9963L55.0123 63.072C54.8683 63.2533 54.7136 63.3947 54.5483 63.496C54.6443 63.56 54.7296 63.6347 54.8043 63.72C54.8843 63.8 54.9589 63.8933 55.0283 64L58.1962 68H56.9243C56.8016 68 56.6949 67.9813 56.6043 67.944C56.5189 67.9013 56.4443 67.8267 56.3803 67.72L53.7163 64.4C53.6363 64.288 53.5563 64.216 53.4763 64.184C53.4016 64.1467 53.2843 64.128 53.1243 64.128H52.7163V68H51.2843V56.216H52.7163ZM63.8013 64.352C63.1453 64.3733 62.5853 64.4267 62.1213 64.512C61.6626 64.592 61.2866 64.6987 60.9933 64.832C60.7053 64.9653 60.4946 65.1227 60.3613 65.304C60.2333 65.4853 60.1693 65.688 60.1693 65.912C60.1693 66.1253 60.2039 66.3093 60.2733 66.464C60.3426 66.6187 60.4359 66.7467 60.5533 66.848C60.6759 66.944 60.8173 67.016 60.9773 67.064C61.1426 67.1067 61.3186 67.128 61.5053 67.128C61.7559 67.128 61.9853 67.104 62.1933 67.056C62.4013 67.0027 62.5959 66.928 62.7773 66.832C62.9639 66.736 63.1399 66.6213 63.3053 66.488C63.4759 66.3547 63.6413 66.2027 63.8013 66.032V64.352ZM59.2013 61.04C59.6493 60.608 60.1319 60.2853 60.6493 60.072C61.1666 59.8587 61.7399 59.752 62.3693 59.752C62.8226 59.752 63.2253 59.8267 63.5773 59.976C63.9293 60.1253 64.2253 60.3333 64.4653 60.6C64.7053 60.8667 64.8866 61.1893 65.0093 61.568C65.1319 61.9467 65.1933 62.3627 65.1933 62.816V68H64.5613C64.4226 68 64.3159 67.9787 64.2413 67.936C64.1666 67.888 64.1079 67.7973 64.0653 67.664L63.9053 66.896C63.6919 67.0933 63.4839 67.2693 63.2812 67.424C63.0786 67.5733 62.8653 67.7013 62.6413 67.808C62.4173 67.9093 62.1773 67.9867 61.9213 68.04C61.6706 68.0987 61.3906 68.128 61.0813 68.128C60.7666 68.128 60.4706 68.0853 60.1933 68C59.9159 67.9093 59.6733 67.776 59.4653 67.6C59.2626 67.424 59.0999 67.2027 58.9773 66.936C58.8599 66.664 58.8013 66.344 58.8013 65.976C58.8013 65.656 58.8893 65.3493 59.0653 65.056C59.2413 64.7573 59.5266 64.4933 59.9213 64.264C60.3159 64.0347 60.8306 63.848 61.4653 63.704C62.0999 63.5547 62.8786 63.4693 63.8013 63.448V62.816C63.8013 62.1867 63.6653 61.712 63.3933 61.392C63.1213 61.0667 62.7239 60.904 62.2013 60.904C61.8493 60.904 61.5533 60.9493 61.3133 61.04C61.0786 61.1253 60.8733 61.224 60.6973 61.336C60.5266 61.4427 60.3773 61.5413 60.2493 61.632C60.1266 61.7173 60.0039 61.76 59.8813 61.76C59.7853 61.76 59.7026 61.736 59.6333 61.688C59.5639 61.6347 59.5053 61.5707 59.4572 61.496L59.2013 61.04ZM70.1864 64.04C70.4744 64.04 70.7277 64 70.9464 63.92C71.165 63.84 71.349 63.728 71.4984 63.584C71.6477 63.44 71.7597 63.2693 71.8344 63.072C71.909 62.8693 71.9464 62.648 71.9464 62.408C71.9464 61.912 71.7944 61.5173 71.4904 61.224C71.1917 60.9307 70.757 60.784 70.1864 60.784C69.6104 60.784 69.1704 60.9307 68.8664 61.224C68.5677 61.5173 68.4184 61.912 68.4184 62.408C68.4184 62.648 68.4557 62.8693 68.5304 63.072C68.6104 63.2693 68.725 63.44 68.8744 63.584C69.0237 63.728 69.2077 63.84 69.4264 63.92C69.645 64 69.8984 64.04 70.1864 64.04ZM72.7544 68.44C72.7544 68.2427 72.6984 68.0827 72.5864 67.96C72.4744 67.8373 72.3224 67.7413 72.1304 67.672C71.9437 67.6027 71.725 67.5547 71.4744 67.528C71.2237 67.496 70.957 67.472 70.6744 67.456C70.397 67.44 70.1144 67.424 69.8264 67.408C69.5384 67.392 69.261 67.3653 68.9944 67.328C68.6957 67.4667 68.4504 67.6427 68.2584 67.856C68.0717 68.064 67.9784 68.3093 67.9784 68.592C67.9784 68.7733 68.0237 68.9413 68.1144 69.096C68.2104 69.256 68.3544 69.392 68.5464 69.504C68.7384 69.6213 68.9784 69.712 69.2664 69.776C69.5597 69.8453 69.9037 69.88 70.2984 69.88C70.6824 69.88 71.0264 69.8453 71.3304 69.776C71.6344 69.7067 71.8904 69.608 72.0984 69.48C72.3117 69.352 72.4744 69.2 72.5864 69.024C72.6984 68.848 72.7544 68.6533 72.7544 68.44ZM74.2024 60.216V60.744C74.2024 60.92 74.0904 61.032 73.8664 61.08L72.9464 61.2C73.1277 61.552 73.2184 61.9413 73.2184 62.368C73.2184 62.7627 73.141 63.1227 72.9864 63.448C72.837 63.768 72.629 64.0427 72.3624 64.272C72.0957 64.5013 71.7757 64.6773 71.4024 64.8C71.029 64.9227 70.6237 64.984 70.1864 64.984C69.8077 64.984 69.4504 64.9387 69.1144 64.848C68.9437 64.9547 68.813 65.0693 68.7224 65.192C68.6317 65.3093 68.5864 65.4293 68.5864 65.552C68.5864 65.744 68.6637 65.8907 68.8184 65.992C68.9784 66.088 69.1864 66.1573 69.4424 66.2C69.6984 66.2427 69.989 66.2693 70.3144 66.28C70.645 66.2907 70.981 66.3093 71.3224 66.336C71.669 66.3573 72.005 66.3973 72.3304 66.456C72.661 66.5147 72.9544 66.6107 73.2104 66.744C73.4664 66.8773 73.6717 67.0613 73.8264 67.296C73.9864 67.5307 74.0664 67.8347 74.0664 68.208C74.0664 68.5547 73.9784 68.8907 73.8024 69.216C73.6317 69.5413 73.3837 69.8293 73.0584 70.08C72.733 70.336 72.333 70.5387 71.8584 70.688C71.389 70.8427 70.8584 70.92 70.2664 70.92C69.6744 70.92 69.157 70.8613 68.7144 70.744C68.2717 70.6267 67.9037 70.4693 67.6104 70.272C67.317 70.0747 67.0957 69.8453 66.9464 69.584C66.8024 69.328 66.7304 69.0587 66.7304 68.776C66.7304 68.376 66.8557 68.0373 67.1064 67.76C67.357 67.4827 67.701 67.2613 68.1384 67.096C67.8984 66.9893 67.7064 66.848 67.5624 66.672C67.4237 66.4907 67.3544 66.248 67.3544 65.944C67.3544 65.8267 67.3757 65.7067 67.4184 65.584C67.461 65.456 67.525 65.3307 67.6104 65.208C67.701 65.08 67.8104 64.96 67.9384 64.848C68.0664 64.736 68.2157 64.6373 68.3864 64.552C67.9864 64.328 67.6744 64.032 67.4504 63.664C67.2264 63.2907 67.1144 62.8587 67.1144 62.368C67.1144 61.9733 67.189 61.616 67.3384 61.296C67.493 60.9707 67.7064 60.696 67.9784 60.472C68.2504 60.2427 68.573 60.0667 68.9464 59.944C69.325 59.8213 69.7384 59.76 70.1864 59.76C70.5384 59.76 70.8664 59.8 71.1704 59.88C71.4744 59.9547 71.7517 60.0667 72.0024 60.216H74.2024ZM80.9739 63.064C80.9739 62.7333 80.9259 62.432 80.8299 62.16C80.7392 61.8827 80.6032 61.6453 80.4219 61.448C80.2459 61.2453 80.0299 61.0907 79.7739 60.984C79.5179 60.872 79.2272 60.816 78.9019 60.816C78.2192 60.816 77.6779 61.016 77.2779 61.416C76.8832 61.8107 76.6379 62.36 76.5419 63.064H80.9739ZM82.1259 66.864C81.9499 67.0773 81.7392 67.264 81.4939 67.424C81.2485 67.5787 80.9845 67.7067 80.7019 67.808C80.4245 67.9093 80.1365 67.984 79.8379 68.032C79.5392 68.0853 79.2432 68.112 78.9499 68.112C78.3899 68.112 77.8725 68.0187 77.3979 67.832C76.9285 67.64 76.5205 67.3627 76.1739 67C75.8325 66.632 75.5659 66.1787 75.3739 65.64C75.1819 65.1013 75.0859 64.4827 75.0859 63.784C75.0859 63.2187 75.1712 62.6907 75.3419 62.2C75.5179 61.7093 75.7685 61.2853 76.0939 60.928C76.4192 60.5653 76.8165 60.2827 77.2859 60.08C77.7552 59.872 78.2832 59.768 78.8699 59.768C79.3552 59.768 79.8032 59.8507 80.2139 60.016C80.6299 60.176 80.9872 60.4107 81.2859 60.72C81.5899 61.024 81.8272 61.4027 81.9979 61.856C82.1685 62.304 82.2539 62.816 82.2539 63.392C82.2539 63.616 82.2299 63.7653 82.1819 63.84C82.1339 63.9147 82.0432 63.952 81.9099 63.952H76.4939C76.5099 64.464 76.5792 64.9093 76.7019 65.288C76.8299 65.6667 77.0059 65.984 77.2299 66.24C77.4539 66.4907 77.7205 66.68 78.0299 66.808C78.3392 66.9307 78.6859 66.992 79.0699 66.992C79.4272 66.992 79.7339 66.952 79.9899 66.872C80.2512 66.7867 80.4752 66.696 80.6619 66.6C80.8485 66.504 81.0032 66.416 81.1259 66.336C81.2539 66.2507 81.3632 66.208 81.4539 66.208C81.5712 66.208 81.6619 66.2533 81.7259 66.344L82.1259 66.864ZM88.723 61.232C88.659 61.3493 88.5603 61.408 88.427 61.408C88.347 61.408 88.2563 61.3787 88.155 61.32C88.0537 61.2613 87.9283 61.1973 87.779 61.128C87.635 61.0533 87.4617 60.9867 87.259 60.928C87.0563 60.864 86.8163 60.832 86.539 60.832C86.299 60.832 86.083 60.864 85.891 60.928C85.699 60.9867 85.5337 61.0693 85.395 61.176C85.2617 61.2827 85.1577 61.408 85.083 61.552C85.0137 61.6907 84.979 61.8427 84.979 62.008C84.979 62.216 85.0377 62.3893 85.155 62.528C85.2777 62.6667 85.4377 62.7867 85.635 62.888C85.8323 62.9893 86.0563 63.08 86.307 63.16C86.5577 63.2347 86.8137 63.3173 87.075 63.408C87.3417 63.4933 87.6003 63.5893 87.851 63.696C88.1017 63.8027 88.3257 63.936 88.523 64.096C88.7203 64.256 88.8777 64.4533 88.995 64.688C89.1177 64.9173 89.179 65.1947 89.179 65.52C89.179 65.8933 89.1123 66.24 88.979 66.56C88.8457 66.8747 88.6483 67.1493 88.387 67.384C88.1257 67.6133 87.8057 67.7947 87.427 67.928C87.0483 68.0613 86.611 68.128 86.115 68.128C85.5497 68.128 85.0377 68.0373 84.579 67.856C84.1203 67.6693 83.731 67.432 83.411 67.144L83.747 66.6C83.7897 66.5307 83.8403 66.4773 83.899 66.44C83.9577 66.4027 84.0323 66.384 84.123 66.384C84.219 66.384 84.3203 66.4213 84.427 66.496C84.5337 66.5707 84.6617 66.6533 84.811 66.744C84.9657 66.8347 85.1523 66.9173 85.371 66.992C85.5897 67.0667 85.8617 67.104 86.187 67.104C86.4643 67.104 86.707 67.0693 86.915 67C87.123 66.9253 87.2963 66.8267 87.435 66.704C87.5737 66.5813 87.675 66.44 87.739 66.28C87.8083 66.12 87.843 65.9493 87.843 65.768C87.843 65.544 87.7817 65.36 87.659 65.216C87.5417 65.0667 87.3843 64.9413 87.187 64.84C86.9897 64.7333 86.763 64.6427 86.507 64.568C86.2563 64.488 85.9977 64.4053 85.731 64.32C85.4697 64.2347 85.211 64.1387 84.955 64.032C84.7043 63.92 84.4803 63.7813 84.283 63.616C84.0857 63.4507 83.9257 63.248 83.803 63.008C83.6857 62.7627 83.627 62.4667 83.627 62.12C83.627 61.8107 83.691 61.5147 83.819 61.232C83.947 60.944 84.1337 60.6933 84.379 60.48C84.6243 60.2613 84.9257 60.088 85.283 59.96C85.6403 59.832 86.0483 59.768 86.507 59.768C87.0403 59.768 87.5177 59.8533 87.939 60.024C88.3657 60.1893 88.7337 60.4187 89.043 60.712L88.723 61.232Z" fill="#838383"/>
<path d="M74.6953 19.2812V16H73.2891V19.2812H69.0781V40H71.8906V38.125H70.9531C70.9531 36.445 72.32 35.0781 74 35.0781C75.68 35.0781 77.0469 36.445 77.0469 38.125H76.1094V40H78.9219V19.2812H74.6953ZM71.8906 32.9688H70.4844V31.0938H71.8906V32.9688ZM71.8906 29.6875H70.4844V27.8125H71.8906V29.6875ZM71.8906 26.4062H70.4844V24.5312H71.8906V26.4062ZM71.8906 23.125H70.4844V21.25H71.8906V23.125ZM74.7031 32.9688H73.2969V31.0938H74.7031V32.9688ZM74.7031 29.6875H73.2969V27.8125H74.7031V29.6875ZM74.7031 26.4062H73.2969V24.5312H74.7031V26.4062ZM74.7031 23.125H73.2969V21.25H74.7031V23.125ZM77.5156 32.9688H76.1094V31.0938H77.5156V32.9688ZM77.5156 29.6875H76.1094V27.8125H77.5156V29.6875ZM77.5156 26.4062H76.1094V24.5312H77.5156V26.4062ZM77.5156 23.125H76.1094V21.25H77.5156V23.125Z" fill="#DADADA"/>
<path d="M74.7031 38.125H73.2969V40H74.7031V38.125Z" fill="#DADADA"/>
<path d="M86 27.2969H80.3281V40H86V27.2969Z" fill="#DADADA"/>
<path d="M67.6719 27.2969H62V40H67.6719V27.2969Z" fill="#DADADA"/>
<g clip-path="url(#clip0)">
<path d="M58 25.914C58 31.2767 36.3174 37.1959 34.6756 37.1959C33.7551 37.1959 32.7107 36.9429 32.7107 35.9311C32.7107 35.5931 33.038 35.1045 33.6123 34.5154L33.6116 34.5158L32.0896 31.2914C31.8835 30.8549 32.0469 30.3018 32.4369 30.1156L32.6985 29.9908C33.1725 29.7645 33.7061 29.7982 34.1574 30.083L36.9205 31.8271C37.9963 31.0663 39.2167 30.2697 40.503 29.4855L35.1184 25.3203C34.6924 24.9907 34.6969 24.2454 35.1269 23.9233L35.5674 23.5934C36.3005 23.0442 37.1917 22.8821 38.0288 23.1453L46.9865 25.9625C49.7794 24.6407 52.3046 23.7386 53.7993 23.7386C54.1985 23.7386 54.5982 23.7512 54.984 23.784L52.2789 25.2401L52.2141 26.325L56.3899 24.0363C57.3908 24.3209 58 24.8521 58 25.914ZM47.1026 35.1711L50.4439 39.6967C50.6475 39.9725 50.9791 40.0555 51.2585 39.9007L51.706 39.6527C52.522 39.2005 53.0026 38.175 52.8981 37.1094L52.4798 32.8451C52.4539 32.5813 52.2294 32.4143 52.0192 32.5025L47.2479 34.5064C47.0157 34.6041 46.9398 34.9507 47.1026 35.1711Z" fill="#DADADA"/>
</g>
<defs>
<clipPath id="clip0">
<rect x="32" y="16" width="26" height="31" fill="white"/>
</clipPath>
</defs>
</svg>
